<?xml version="1.0" standalone="no"?>
<!DOCTYPE svg PUBLIC "-//W3C//DTD SVG 20010904//EN"
 "http://www.w3.org/TR/2001/REC-SVG-20010904/DTD/svg10.dtd">
<svg version="1.0" xmlns="http://www.w3.org/2000/svg"
 width="353.000000pt" height="100.000000pt" viewBox="0 0 353.000000 100.000000"
 preserveAspectRatio="xMidYMid meet">

<g transform="translate(0.000000,100.000000) scale(0.100000,-0.100000)"
fill="#000000" stroke="none">
<path d="M375 966 c-122 -38 -216 -149 -244 -287 -23 -110 19 -233 111 -331
68 -72 226 -110 311 -75 21 9 37 12 37 6 0 -21 -49 -58 -91 -69 -38 -11 -54
-9 -116 9 -122 36 -165 25 -178 -45 -13 -65 65 -125 188 -145 149 -24 277 38
345 166 25 47 27 59 30 215 6 249 -11 280 -148 280 -62 0 -80 -4 -93 -18 -22
-25 -21 -29 8 -36 28 -7 65 -59 65 -91 0 -36 -37 -82 -75 -95 -134 -44 -261
75 -225 210 23 87 127 160 205 146 19 -4 59 -18 87 -31 69 -32 93 -31 129 4
41 42 38 75 -10 121 -73 69 -229 100 -336 66z"/>
<path d="M854 827 l-29 -25 0 -240 0 -241 29 -30 c37 -39 69 -39 107 -2 28 28
29 33 29 123 0 51 5 110 10 130 13 46 59 85 108 93 62 11 93 27 113 59 27 45
24 82 -10 117 -41 40 -85 39 -141 -3 -86 -66 -80 -63 -80 -40 0 30 -40 71 -76
78 -24 5 -37 0 -60 -19z"/>
<path d="M1431 839 c-129 -25 -221 -145 -221 -287 0 -80 28 -147 86 -205 53
-52 98 -71 186 -75 65 -3 84 0 130 20 29 14 66 38 82 54 33 34 73 109 85 161
l9 38 1 -35 c3 -81 109 -206 197 -230 188 -53 358 62 372 250 13 179 -107 314
-277 314 -36 0 -84 -6 -105 -14 -77 -25 -185 -154 -187 -222 0 -14 -8 -3 -19
30 -38 107 -105 170 -207 197 -63 16 -68 17 -132 4z m130 -190 c9 -4 24 -25
34 -45 22 -47 13 -92 -26 -130 -25 -24 -39 -29 -80 -29 -44 0 -54 4 -80 33
-52 58 -35 147 35 178 31 14 84 11 117 -7z m564 7 c19 -8 41 -28 49 -45 54
-103 -51 -209 -154 -156 -41 21 -60 53 -60 100 0 48 21 82 64 101 40 17 59 17
101 0z"/>
<path d="M2374 836 c-65 -29 -60 -66 41 -319 90 -228 110 -257 168 -257 64 0
93 43 181 269 19 47 46 112 60 144 31 70 33 106 5 141 -26 33 -88 37 -116 7
-10 -11 -42 -81 -72 -156 -29 -75 -55 -134 -57 -132 -2 2 -19 48 -39 103 -68
192 -65 185 -101 200 -39 16 -32 16 -70 0z"/>
<path d="M3264 836 c-32 -14 -55 -59 -114 -226 -13 -36 -26 -69 -30 -73 -4 -5
-17 18 -28 50 -46 131 -82 216 -98 234 -27 30 -87 26 -113 -7 -27 -35 -26 -72
4 -147 67 -171 125 -333 125 -352 0 -12 -11 -34 -25 -49 -30 -32 -69 -34 -124
-5 -68 35 -121 5 -121 -69 0 -37 6 -50 33 -77 64 -64 180 -79 269 -34 71 36
104 90 219 359 138 324 146 365 74 396 -40 16 -32 16 -71 0z"/>
</g>
</svg>
