<?xml version="1.0" standalone="no"?>
<!DOCTYPE svg PUBLIC "-//W3C//DTD SVG 20010904//EN"
 "http://www.w3.org/TR/2001/REC-SVG-20010904/DTD/svg10.dtd">
<svg version="1.0" xmlns="http://www.w3.org/2000/svg"
 width="325.000000pt" height="181.000000pt" viewBox="0 0 325.000000 181.000000"
 preserveAspectRatio="xMidYMid meet">

<g transform="translate(0.000000,181.000000) scale(0.100000,-0.100000)"
fill="#000000" stroke="none">
<path d="M805 1754 c-283 -45 -512 -212 -649 -474 -58 -110 -86 -237 -86 -392
0 -275 77 -468 259 -648 138 -136 283 -205 488 -230 142 -18 336 20 453 88 58
34 187 155 369 346 613 641 589 620 712 620 73 0 136 -28 182 -83 59 -70 73
-191 33 -269 -45 -88 -129 -137 -231 -136 -75 0 -110 13 -158 58 -32 29 -67
41 -99 33 -13 -4 -94 -78 -180 -165 -193 -193 -190 -186 -85 -287 145 -139
321 -207 537 -208 96 -1 131 4 215 27 55 15 135 46 177 68 81 42 208 143 252
201 150 197 223 449 196 678 -24 213 -132 429 -277 555 -130 114 -213 160
-348 195 -259 66 -545 -1 -729 -173 -52 -49 -58 -57 -38 -58 48 0 85 -64 66
-113 -3 -8 -175 -181 -383 -384 -428 -418 -440 -427 -561 -428 -64 0 -82 4
-123 28 -122 72 -159 212 -90 340 78 143 252 165 385 47 47 -42 62 -50 96 -50
89 0 151 107 108 188 -18 35 -90 103 -141 134 -80 50 -212 75 -306 58 -108
-20 -165 -47 -235 -112 -104 -98 -153 -230 -138 -376 5 -58 3 -71 -13 -91 -25
-31 -76 -33 -104 -4 -39 38 -44 205 -10 320 19 66 86 177 140 232 132 136 294
201 466 187 154 -12 275 -69 402 -188 87 -83 103 -89 159 -62 34 16 74 81 74
119 0 79 -173 250 -337 333 -80 41 -212 73 -318 77 -55 2 -113 1 -130 -1z
m1668 -289 c280 -59 477 -329 451 -619 -6 -69 -10 -84 -34 -108 -35 -35 -54
-35 -86 -2 -25 24 -26 28 -20 112 12 151 -33 262 -152 373 -100 94 -195 114
-398 83 -37 -5 -44 -3 -63 21 -11 15 -21 34 -21 42 0 24 29 72 51 83 55 30
172 36 272 15z"/>
</g>
</svg>
